<svg width="372" height="310" viewBox="0 0 372 310" fill="none" xmlns="http://www.w3.org/2000/svg">
<mask id="mask0_690_3635" style="mask-type:luminance" maskUnits="userSpaceOnUse" x="0" y="0" width="372" height="310">
<path d="M372 0H0V310H372V0Z" fill="white"/>
</mask>
<g mask="url(#mask0_690_3635)">
<path d="M-37 153.347C-37 153.347 16.1578 242.752 122.447 245.18C167.963 246.213 218.41 232.19 255.097 204.816C292.635 176.796 304.821 121.919 276.086 83.4139C243.685 39.9251 177.825 33.3398 143.153 77.9907C116.948 111.769 116.871 158.9 135.124 196.32C153.531 234.05 188.875 260.262 228.737 271.779C268.212 283.194 308.254 269.249 336.344 240.273C357.488 218.451 374.476 188.83 377.109 158.125C378.245 144.825 373.185 108.49 353.615 110.84C337.428 112.802 328.547 144.231 326.326 157.169C322.944 176.796 325.862 198.231 338.099 214.423C355.629 237.691 386.506 251.094 414.776 254.864" stroke="url(#paint0_linear_690_3635)" stroke-width="8" stroke-miterlimit="10"/>
</g>
<defs>
<linearGradient id="paint0_linear_690_3635" x1="-45.8811" y1="161.611" x2="416.119" y2="161.611" gradientUnits="userSpaceOnUse">
<stop stop-color="#F6EA2B"/>
<stop offset="0.04" stop-color="#F5E52B"/>
<stop offset="0.09" stop-color="#F4D72B"/>
<stop offset="0.13" stop-color="#F3C02C"/>
<stop offset="0.18" stop-color="#F1A02C"/>
<stop offset="0.23" stop-color="#EE772E"/>
<stop offset="0.29" stop-color="#EB452F"/>
<stop offset="0.31" stop-color="#EA2F30"/>
<stop offset="0.42" stop-color="#E82C4F"/>
<stop offset="0.46" stop-color="#A32F6A"/>
<stop offset="0.48" stop-color="#72317E"/>
<stop offset="0.5" stop-color="#53338A"/>
<stop offset="0.52" stop-color="#48348F"/>
<stop offset="0.62" stop-color="#2F2F82"/>
<stop offset="0.68" stop-color="#2D549E"/>
<stop offset="0.73" stop-color="#2B73B6"/>
<stop offset="0.79" stop-color="#2A8BC9"/>
<stop offset="0.85" stop-color="#299DD7"/>
<stop offset="0.92" stop-color="#29A7DF"/>
<stop offset="1" stop-color="#29ABE2"/>
</linearGradient>
</defs>
</svg>
